<svg width="32" height="32" viewBox="0 0 32 32" fill="none" xmlns="http://www.w3.org/2000/svg">
<path fill-rule="evenodd" clip-rule="evenodd" d="M9.33325 5.33341C8.59687 5.33341 7.99992 5.93037 7.99992 6.66675V25.3334C7.99992 26.0698 8.59687 26.6667 9.33325 26.6667H22.6666C23.403 26.6667 23.9999 26.0698 23.9999 25.3334L23.9999 12.5524L16.781 5.33341H9.33325ZM5.33325 6.66675C5.33325 4.45761 7.12411 2.66675 9.33325 2.66675H16.781C17.4882 2.66675 18.1665 2.9477 18.6666 3.4478L25.8855 10.6667C26.3856 11.1668 26.6666 11.8451 26.6666 12.5524V25.3334C26.6666 27.5426 24.8757 29.3334 22.6666 29.3334H9.33325C7.12411 29.3334 5.33325 27.5426 5.33325 25.3334V6.66675ZM10.6666 16.0001C10.6666 15.2637 11.2635 14.6667 11.9999 14.6667H19.9999C20.7363 14.6667 21.3333 15.2637 21.3333 16.0001C21.3333 16.7365 20.7363 17.3334 19.9999 17.3334H11.9999C11.2635 17.3334 10.6666 16.7365 10.6666 16.0001ZM10.6666 21.3334C10.6666 20.597 11.2635 20.0001 11.9999 20.0001H19.9999C20.7363 20.0001 21.3333 20.597 21.3333 21.3334C21.3333 22.0698 20.7363 22.6667 19.9999 22.6667H11.9999C11.2635 22.6667 10.6666 22.0698 10.6666 21.3334Z" fill="#A1A1A1"/>
</svg>
